<?xml version="1.0" encoding="utf-8"?>
<!-- Generator: Adobe Illustrator 25.0.1, SVG Export Plug-In . SVG Version: 6.00 Build 0)  -->
<svg version="1.1"
	 id="Layer_1" xmlns:cc="http://creativecommons.org/ns#" xmlns:dc="http://purl.org/dc/elements/1.1/" xmlns:rdf="http://www.w3.org/1999/02/22-rdf-syntax-ns#"
	 xmlns="http://www.w3.org/2000/svg" xmlns:xlink="http://www.w3.org/1999/xlink" x="0px" y="0px" viewBox="0 0 774 774"
	 style="enable-background:new 0 0 774 774;" xml:space="preserve">
<style type="text/css">
	.st0{fill:#FFFFFF;}
	.st1{fill:#134A8E;}
	.st2{fill:#1D2D5C;}
	.st3{fill:#E8291C;}
</style>
<g transform="translate(1.0909 -.72727)">
	<path class="st0" d="M683.4,163.2C626.2,87.3,543.1,36.6,449.5,20.5c-49.7-8.6-99.8-7.2-148.7,4.3c-16.6,3.9-32.7,8.9-48.5,14.9
		c-32.3,12.4-62.8,29.3-91,50.6c-14.5,11-28.1,22.9-40.7,35.6C64.3,182.6,28,255.6,16.8,336.2c-2.6,18.5-3.8,36.9-3.7,55.3
		c0.7,79.4,26.6,156.3,75.3,220.9c14.3,19,30.2,36.3,47.5,52c51.9,47,116.2,78.5,186.4,90.7c43.5,7.5,87.3,7.4,130.3-0.5
		c6.1-1.1,12.3-2.4,18.4-3.8c50.7-11.9,97.6-33.9,139.5-65.5C690,625.4,741.3,538,755.1,439.4C768.9,340.7,743.4,242.6,683.4,163.2z
		 M748.7,438.2c-4.1,29.7-11.7,58.3-22.5,85.4c-21.9,55.1-56.9,104-102.9,143c-5.4,4.6-10.9,9-16.6,13.3
		c-57.2,43.3-126,68.4-196.7,73.1c-4,0.3-8,0.5-12,0.6c-15.4,0.5-30.9,0.1-46.4-1.4c-9.4-0.9-18.8-2.1-28.1-3.7
		c-40.9-7.1-79.8-20.9-115.4-40.6c-11.8-6.5-23.3-13.8-34.3-21.6c-30.2-21.5-57.2-47.7-80.1-78c-19.9-26.3-35.8-54.7-47.8-84.4
		c-12.4-31-20.6-63.5-24.1-96.8c-3.2-29.6-2.7-59.8,1.5-90.1c9.1-65.2,34.9-125.4,74.6-175.7c19.3-24.5,41.9-46.6,67.4-65.9
		C214.8,58,273,34.2,333.6,25.5c1.8-0.3,3.6-0.6,5.4-0.8c4.3-0.6,8.7-1.1,13.1-1.5c10.3-1,20.5-1.5,30.8-1.6
		c18.7-0.1,37.5,1.1,56.2,3.8c3.1,0.5,6.2,1,9.3,1.5c19.2,3.3,38,8.1,56.1,14.3c68.8,23.4,129.2,66.9,173.7,125.9
		c40.1,53.2,64.5,114.8,71.7,179.3c0.1,0.6,0.2,1.2,0.3,1.9C753.3,377.9,752.8,408.1,748.7,438.2z M498.2,114
		c4.1-5.5,10.6-8.3,17.1-8c3.9,0.2,7.7,1.4,11,3.8c8.7,6.5,10.6,19.4,4.2,28.1c-6.5,8.7-19.4,10.6-28.1,4.2
		C493.7,135.6,491.8,122.7,498.2,114z M648.7,153.5c-0.1-0.1-0.2-0.3-0.4-0.5C595.5,93.9,524.7,54.5,446,40.9
		c-97-16.8-193.7,6.6-272.2,65.9C98.8,163.4,50.3,245.9,37.2,339c-13,93.1,11,185.7,67.7,260.8c54,71.6,132.5,119.5,220.9,134.8
		c97,16.8,193.6-6.6,272.2-65.9c75-56.7,123.5-139.1,136.6-232.3c13-93.1-11.1-185.7-67.7-260.8
		C661.1,167.9,655.1,160.6,648.7,153.5z M588.1,153.8c0,0.1-0.4,16.2-5.9,29.2c14.4-8.2,29-12.6,44.4-14.9
		c-15.8,18.2-27.5,34-35.4,55.4c14-9.8,22.9-13.4,35.7-13.8c-12.7,12.2-17.1,38.4-23.2,63.2l-17.5-28.5l-7.4-12l-7.4,12L550,279.6
		l-14.4-5.8l-13.2-5.3l1.4,14.2c0,0.4,3.4,35.5,4.8,49.3c-7.6-7.4-22.1-21.4-22.3-21.6l-9.3-9.1l-4.8,12.1l-4.3,11l-29.3-5l-11-1.9
		l0.6,7.8c-19.8-1.1-32.9-3.6-52.8-8.5c-16.1-3.9-39.9-13.3-62.2-20.2c13.1-1.8,28.7-2.1,47.6-0.4c0,0-80.4-26.1-117.9-0.4
		c-4.9,3-8.6,6.6-10.6,10.6c-5.1,10.2-1.1,20.3-1.1,20.3c-15.2,0-28.1-16.9-26.9-34.6c11.3-17.2,27.7-34.6,59.7-45.1
		C332.7,231,520.7,232,588.1,153.8z M223,249.2c-1.6,1.2-3.2,2.5-4.8,3.7c-0.3-0.6-0.7-1.2-1.1-1.9c-0.3-0.4-0.6-0.8-0.9-1.2
		c-1.8,2.2-3.6,4.5-5.3,6.7c0.2,0.3,0.4,0.7,0.6,1c0.1,0.2,0.2,0.4,0.3,0.6c-1.1,1-2.1,1.9-3.2,2.9c-0.4,0.4-0.8,0.8-1.2,1.1
		c-0.1-0.1-0.2-0.2-0.2-0.3c0-0.1,0-0.1,0-0.2c-9.8,13.8-17.8,28.5-23.9,43.9c-4.9,0.8-9.7,1.7-14.4,2.5
		c10.4-28.2,26.5-54.9,48.4-78.3c45-48,105.6-72.5,166.6-73.1c41.7-0.4,83.6,10.4,120.7,32.6c-5.2,2-10.5,3.7-15.9,5.4
		c-11.2-6-22.8-10.9-34.7-14.8c-0.4-0.1-0.8-0.3-1.2-0.4c-0.2-0.1-0.4-0.1-0.6-0.2c-43.7-13.8-90.7-13.5-134.1,0.6
		c-1.3,5-4.3,12.3-6.1,15.4c2,1.7,3.5,3.9,4.5,6.3c0.7,1.9,1.1,3.8,1.3,5.8c0.3,2.3,0.2,4.6-0.2,6.7c-0.2,0.1-0.5,0.1-0.7,0.1
		c-2.4,0.2-4.9,0.3-7.2,0.5c0.2-1.2,0.2-2.8,0-4.7v-0.3c-0.5-4.1-2.3-9.3-6.3-13.6c0.3-0.3,0.6-0.6,0.9-1c2.1-2.7,4.3-7.7,5.8-12.2
		c-1.2,0.4-2.4,0.9-3.6,1.4c-3.7,1.5-7.4,3-11,4.6c-1,3.4-2.2,6.7-3.2,8.9c-0.1,0.2-0.1,0.3-0.2,0.5c-0.1,0.1-0.1,0.3-0.2,0.4
		c4.5,5.4,6.2,12,5.4,17.7c-2.7,0.5-5.4,1-8.1,1.6v-0.1l0.1-0.3c0.9-3.7,0.7-9.4-5.9-16.9c1.4-1.5,2.7-4.5,3.9-7.9
		c-4.4,2.2-8.7,4.6-12.9,7.1c-0.1,0.4-0.2,0.7-0.3,1.1c-0.3,1.2-0.6,2.2-0.9,3c0.5,0.5,1,1,1.4,1.5c1.9,2.2,3.3,4.7,4.3,7.3
		c0.8,2.5,1.4,5,1.5,7.5c-2.7,0.7-5.2,1.5-7.8,2.4c0.2-3.8-1-9.7-7.7-15.8c0.4-0.4,0.7-1,1-1.7c-1.6,1.1-3.2,2.2-4.8,3.3
		c-1.5,1.1-3,2.1-4.5,3.2c3.6,3.3,6.1,7.6,7.2,11.9c0.2,0.8,0.4,1.6,0.5,2.3c-0.1,0-0.2,0.1-0.3,0.1c-2.2,0.9-4.3,1.8-6.4,2.8
		c-0.1,0-0.2,0-0.3,0.1c0-0.3-0.1-0.6-0.1-0.9c-0.2-1.5-0.7-3.2-1.6-5c-0.8-1.5-1.8-3-3.2-4.6c-0.6-0.7-1.2-1.4-2-2.1
		c-2.4,1.9-4.8,3.9-7.1,5.9c0.5,0.6,1,1.1,1.5,1.7c1,1.2,1.9,2.3,2.7,3.6c0.9,1.6,1.7,3.3,2.3,5c-2,1.1-4,2.2-6,3.3
		c-0.8-2.8-2.3-6.1-5.5-9.2c-0.5,0.5-1,0.9-1.5,1.4c-2,1.9-4,3.7-5.9,5.7c0.4,0.6,0.9,1.1,1.3,1.7c1.3,1.8,2.3,3.6,3.1,5.5
		c-0.3,0.2-0.6,0.4-0.9,0.6c-1.4,0.9-2.8,1.9-4.2,2.8c-0.8-1.9-1.9-4-3.7-6c-1.1,1.2-2.3,2.5-3.4,3.8c-0.9,1-1.8,2-2.7,3
		C221.4,246.3,222.3,247.7,223,249.2z M429.5,201.9c-1.2,2.7-3.2,5.4-5,7.9c-3.8,0.7-7.6,1.3-11.4,2c-0.1-0.1-0.2-0.2-0.2-0.3
		c0.8-0.7,1.7-1.6,2.6-2.5c2.7-2.7,5.5-6.3,7.4-9.4C425.2,200.3,427.4,201.1,429.5,201.9z M403.5,213.3c-2.4,0.4-4.8,0.8-7.2,1.2
		c-0.9-3.3-2.4-6.4-4.8-9c3-2.8,7.2-8.2,9.7-12.5c2.3,0.6,4.6,1.3,6.8,1.9c-2.1,4.5-6.3,9.9-8.1,13
		C401.4,209.3,402.6,211.2,403.5,213.3z M383.5,216.4c-2.6,0.3-5.2,0.7-7.8,1.1c-0.5-5-2.3-11.8-6.5-16.9c3.1-2.5,7.6-8.6,10.5-13.3
		c2.3,0.6,4.6,1.2,6.9,1.7c-2.3,4.5-6.6,10.2-8.6,13.2C381.5,205.7,383.2,211.2,383.5,216.4z M359.7,217.4c-2.5-0.5-5-0.9-7.5-1.3
		c0.9-3.6,0.6-10.5-3-17.1c-0.6-0.9-1.2-1.9-1.8-2.8c3.2-2.2,8.3-8.5,11.5-13.3c2.5,0.5,4.9,1,7.4,1.3c-2.7,4.6-8.3,10.7-10.6,13.5
		C360.3,203.1,361.4,211.3,359.7,217.4z M337.6,214.3c-2.6-0.1-5.2-0.3-7.8-0.4c1.4-3.7,1.2-11.3-4.4-19.1c3.2-2.3,7.4-9.9,10-15.3
		c2.3,0.2,4.8,0.4,7.1,0.8c-2,4.8-5.8,12.1-8,14.9C339,200.6,339.4,208.4,337.6,214.3z M487.4,106c6.9-9.4,17.8-14.1,28.6-13.7
		c6.5,0.2,12.9,2.4,18.5,6.5c14.8,11,17.9,32.2,6.8,47.1c-11.1,15-32.2,18.2-47.1,7.2C479.4,142.1,476.3,120.9,487.4,106z
		 M426.6,64.9l46.4,9.4l-0.3,15.5c-1.8-1.7-4.6-3.8-8.3-4.6l-10.6-2.1l-9,44.3c-0.6,3.2,0.1,6,1.5,8l-19.5-4
		c2.3-1.3,3.5-3.5,4.2-6.9l9-44.3l-9.5-1.9c-3.6-0.5-6.2-0.6-9.6,0.8L426.6,64.9z M379.9,69.4c-0.3-3-0.7-4.9-2-6.4l17.1-1
		c-1.4,2-1.5,4.6-1.4,6.9l3.4,58.7l-40.9-32.1l1.5,26.5v0.1c0.3,3.6,0.5,5.6,2.2,7.4l-18,1.1c2-2.3,2.2-5.1,2.1-7.8l-3.4-57.9l41,32
		L379.9,69.4z M257.3,94.1c7-9.4,17.8-14.1,28.6-13.7c6.5,0.3,12.9,2.4,18.5,6.6c14.9,11,17.9,32.1,6.8,47.1
		c-11.1,15-32.2,18.2-47.1,7.2C249.2,130.2,246.1,109.1,257.3,94.1z M190.6,129.4l0.2-0.2c2.9-2.1,6.6-3.7,7.4-4
		c2.8-1.1,5.6-1.7,8.3-1.8c0.9,0,1.8,0,2.6,0.1c2.1,0.3,4.2,0.8,6.4,1.9l0.4,0.2c2.8,1.4,5.3,3.5,7.3,6.3c1.5,2,2.6,4.2,3.3,6.5
		c0.3,0.9,1.7,6.1-1.1,13.1l-0.4,1.1l22.9,7.8c3.3,0.9,6.3,1.5,8.7,1.6l-14.9,10.8L207,160.5l13.4,18.4c1.9,2.4,3.7,4.2,6.7,4.5
		l-15.8,11.5c0.4-2.3-0.1-4.3-0.9-5.9l-30.9-43c-1.8-2.4-4.4-3.3-6.7-3.7L190.6,129.4z M125.1,193.5c6.9-9.4,17.8-14.1,28.6-13.7
		c6.5,0.2,12.9,2.4,18.5,6.5c14.9,11,17.9,32.1,6.8,47.1c-11.1,15-32.2,18.2-47.1,7.2C117.1,229.5,114,208.4,125.1,193.5z M95,242.4
		l15.2,3.2c-2,1.4-4.6,3.8-6,7.3l-4.1,10L142,280c3,1.2,5.9,1,8.2,0l-7.6,18.6c-0.8-2.3-2.5-4.2-5.9-5.6l-41.8-17.1l-3.7,9
		c-1.5,3.4-2,5.9-1.3,9.5L77,286.1L95,242.4z M57.2,358.4c8.3-9.1,39.7-23.7,131.4-38.9c8.4-13.4,14.2-19,25.4-23.7
		c2,18.1,12,39.4,37.3,41.2h0.2c24,0,28.5-25.1,54.1-25.1c25.9,0,30.3,25.2,54.9,25.2h88.8l1.2,14.7h-88.7c-0.8,0-1.6,0-2.4,0
		c-23.7,0.8-28.3,25.2-53.8,25.2c-25.7,0-30.2-24.9-54.4-25.2h-2.5h-1.3c-13,0-19.8,4.4-23.6,9.4c-5.9-0.1-11.9-0.2-18.1-0.3
		c-74.8-2.5-117.5-1-148,0.3C56.6,360.9,56,360.1,57.2,358.4z M83.1,530.3l-14.4-30.5c3.6,3.7,8,4.2,13.5,1.7l59.1-28
		c4.9-2.2,6.7-6,6.7-9.9l14,29.6c7.3,15.2,2.5,32-10.9,38.4c-9.1,4.3-15.4,1.4-15.4,1.4c-1.6,8-6.5,13.3-13.1,16.4
		C114,553.5,94.8,554.7,83.1,530.3z M151.8,628.6L115,587.3c4.8,1.7,8.8,1.6,13.2-2.1c5.1-4.5,48.4-43.1,48.5-43.2
		c0.3-0.3,0.5-0.4,0.5-0.4c4.3-3.9,5-7.8,3.8-11.4l9.5,10.7l-59,52.7l27.3,30.6L151.8,628.6z M162,622.2L136.9,594l56.2-50.1
		l0.1,0.1l9.5,10.7c-4.6-2.8-11.7,2.5-11.7,2.5c-0.1,0.1-0.2,0.2-0.3,0.3c0,0,0,0-0.1,0c-5.2,4.6-36.3,32.3-41.9,37.4
		c4.1,4.6,11.1,12.4,11.1,12.4l0.3,0.3c6.1,6.8,13.8,7.2,13.8,7.2L162,622.2z M273.9,622.2l-27,42.7c-9.3,14.6-26.2,16.4-42.4,6.1
		c-16.6-10.6-21-25.8-11.9-40.5c0,0,27-42.7,27.1-42.7c3.1-4.9,2.9-7.9,0.6-12l12.1,7.7l-31.9,50.2c-0.9,1.4-1.2,1.9-1.2,1.9
		c-3.6,5.6-2.9,13.1,0.9,19.4c0.1,0.1,0.1,0.2,0.2,0.4c2.1,3.4,5.1,6.5,8.9,8.9c11,7,24.5,5.6,30.1-3.2c0,0,0.8-1.2,1.2-1.9
		l31.9-50.2l12,7.6C280.5,616,276.9,617.7,273.9,622.2z M215.6,654.2c5.2,3.3,11.8,2.6,14.7-1.6c9.1-14.3,26.3-41.5,26.3-41.5
		c2.7-4.3,3.2-7.7,0.6-12l12.1,7.7L236.8,658c-5.2,8-16.4,9-25.7,3.1s-13-16.7-8-24.6l32.3-51l12.1,7.7c-4.9-0.3-8.1,1.7-10.6,5.6
		c0,0-0.2,0.3-0.5,0.8c0,0.1-22.7,36-25.6,40.6C208.3,644.5,210.4,650.9,215.6,654.2z M339.1,708.8l-40.2-9.5l7.3-30.7l32.8,7.8
		l-2.8,11.6c0,0-1.5-5.1-8.5-7l-0.2-0.1l-14.8-3.5l-3.8,15.8c0,0,20.9,5,21,5c7.9,1.6,11.5-0.5,14.8-2.4L339.1,708.8z M350.4,659.9
		c0,0-2.4-5.4-12.5-7.9l-18.5-4.4l-2.9,12.3l15.4,3.7c6.9,1.6,10.8-2.6,10.8-2.6l-2.8,11.7l-33.2-7.9l6.4-27.1l38.2,9.1L350.4,659.9
		z M351.4,642.9l-41.3-9.8l-16.4,69l43.6,10.3L334,720l-57.7-13.7c6.2-0.7,8.9-5.5,9.8-8.9c0.1-0.4,0,0.2,15.2-64.1
		c1.4-4.6-0.5-8.8-3.6-11.6l54.3,12.9L351.4,642.9z M227.9,556.3c-40.4-37.8-64.1-86.8-71-137.6c4.2,1,8.6,1.9,13,2.8
		c3.2,20.7,9.4,41,18.6,60.3c0.2-0.2,0.3-0.4,0.5-0.7c0-0.2,0.2-0.4,0.3-0.5c1.3,1.7,2.7,3.4,4.1,5.1c-0.5,0.8-1.1,1.7-1.6,2.7
		c0.6,1.2,1.3,2.4,1.9,3.5c0.5,1,1,2,1.6,3c0.1-0.4,0.3-0.7,0.4-1c0.6-1.4,1.2-2.8,1.9-4.1c1.5,1.5,3.1,3,4.7,4.5
		c-0.6,1.3-1.3,2.8-1.8,4.4c-0.4,1.1-0.7,2.1-1,3.2c1.6,2.6,3.3,5.3,5,7.8c0.4-3.7,1.7-7.2,3.4-10.3c1.6,1.4,3.3,2.8,5,4.2
		c-0.3,0.6-0.6,1.4-0.9,2.1c-1.3,3.4-2.2,7.4-2.2,11.5c0.9,1.2,1.7,2.3,2.6,3.4c1.8,2.4,3.7,4.8,5.7,7.1c0-0.1,0-0.1,0-0.1
		c-0.7-1.6-1.2-3.2-1.4-4.9c-0.6-5,0.7-9.7,3-13.6c0.6,0.4,1.3,0.8,1.9,1.3c1.3,0.9,2.5,1.8,3.8,2.7c-0.4,0.7-0.7,1.6-1,2.5
		c-1.4,4.3-2.2,10.7,0.1,16.7c-0.2-0.1-0.3-0.1-0.5-0.1c-0.3,0-0.7,0.2-1,0.5c-0.1,0.1-0.3,0.2-0.4,0.4c1.4,1.6,2.7,3.1,4.2,4.6
		c1.4,1.5,2.8,3,4.3,4.5c0.4-0.8,0.7-1.5,1-2.1c0-0.1,0.1-0.3,0.2-0.4c0.3-0.5,0.6-1.1,0.9-1.6c-3.7-6.7-3-14.4-0.1-20
		c1.9,1.2,3.9,2.4,5.9,3.5c-0.4,0.9-0.7,2.1-1,3.4c-0.7,3.6-0.9,8.4,0.5,13.2c0.4,1.3,0.9,2.6,1.5,3.9c-0.2,0-0.3,0-0.5,0
		c-0.1,0-0.2,0-0.3,0.1c0,0.1-0.1,0.1-0.1,0.1c-0.1,0.1-0.1,0.1-0.2,0.2c0,0.1-0.1,0.1-0.2,0.2c-0.8,0.9-1.6,2.5-2.3,4.4
		c0,0.1,0.1,0.1,0.1,0.1c0,0.1,0,0.1,0,0.1c0.4,0.4,0.9,0.8,1.3,1.2c2.2,2,4.4,4,6.7,5.9c0.7,0.6,1.4,1.2,2.1,1.8
		c0.6-3.2,1.6-5.8,3.6-9c-3.5-6.1-4.1-14.8-2.1-20.7c1.6,0.7,3.2,1.5,4.8,2.2c0.4,0.2,0.9,0.5,1.4,0.7c-1.2,4.6-1.5,14.3,2.9,21
		c-0.4-0.1-0.8,0-1.2,0.4c-1.5,1.2-2.7,5.2-3.6,10.1c28.1,21.7,60.2,35.6,93.4,41.7c2.2,4.6,4.3,9.2,6.3,13.7
		C307.1,609.7,263.6,589.8,227.9,556.3z M278.1,557.7c-2.7-0.4-3.9,5.3-4.8,14.5c-2.2-0.6-4.5-1.3-6.8-2c0.4-7,1.2-11.1,3.6-14.8
		c-5.7-4.6-6.1-14.7-4.3-21.4c2.3,0.8,4.7,1.6,7.1,2.3C272,541.7,272.2,553.4,278.1,557.7z M299.7,561.7c-2.7-0.1-3.3,7.1-3,15.1
		c-2.4-0.3-4.9-0.6-7.2-1c-0.5-6.5-0.1-11.5,1.7-15.2c-0.8-0.5-1.5-1.1-2.2-1.8c-4.6-4.8-5.6-13.4-4.6-19.5c2.4,0.5,5,1,7.5,1.5
		C291.4,545.9,292.5,556.6,299.7,561.7z M322.3,578.5c-2.4,0.1-4.8,0.2-7.2,0.2c-1-6.1-1-11.4,0.1-16c-7-3.1-9.8-13.1-9.7-20.2
		c2.6,0.2,5.2,0.3,7.8,0.4c0.2,5.1,2.9,15.1,10.5,19.4C321.2,562.5,321.4,571.4,322.3,578.5z M247,437.5
		c-20.9-14.6-34.2-22.6-63.3-28c-60.6-11.3-110-30.4-124.5-40.9c-3.4-2.6-2.5-3.9,0.5-3.8c3.2,0,6.7,0.1,10.6,0.2
		c53.3,1.7,100.3,6.7,143.2,12.8c-3,19.6,20.4,33.1,45.1,43.2c85.5,35.1,132.8,98.9,153,148.5c20.2-35.4,50.3-67.3,65.8-86.6
		l-30.3,0.1c6.9-19.2,21.5-44,36.5-66.9l27.6,23.8l-7.1,8.6L491,464.3l20.5-1.7l42.6-3.5c-6.5,5.1-89.9,71.8-161.7,211.2
		C354.6,559.2,292.5,469.3,247,437.5z M568.7,496.6c-1.1-2.9-1.8-6-2.2-9.3c2.1-0.1,4.2-0.2,6.2-0.3c0.2,2.9,0.7,6.6,2.5,10.4
		c4-7,7.7-14.1,10.9-21.4c2.6-5.9,4.9-11.8,7-17.9l12.8,1c-10.2,31.3-27.2,60.9-51.2,86.5c-31,33.2-69.5,55.1-110.4,65.7
		c3.5-5.5,6.9-10.8,10.3-16c33.6-11,65.1-30.4,91-58.1c10-10.7,18.8-22.3,26.3-34.3C570.6,500.8,569.5,498.7,568.7,496.6z
		 M553.6,575.6c0,0,1.3,2.1,4.5,3.7l20.4,8.4l-7.7-20.8c-1.6-4.5-2.9-4.9-3.6-5.3c-0.9-0.2-3-0.5-6.4,1.1l13.3-12.8l17.2,51.2
		L540.7,582l0.3-0.3l13.1-12.6C553.5,570.9,552.4,573.4,553.6,575.6z M454.1,690.4L442,641.6c-1.2-4.9-5.3-8.2-8.3-8.7l13.9-3.4
		c0,0,14.7,59.3,14.7,59.4c2.3,9.6-5.1,17.4-13.8,19.5c-2.2,0.5-9.2,2.2-15.9-1.9c0,0-5-3.2-7.3-5.9l5.9-9.9c0,0,2.5,7.8,7.5,9.5
		c0.1,0,3.7,1.4,8.2,0.2C451.5,699.1,455.2,695,454.1,690.4z M519,511.6c1.4-1.5,2.7-2.9,4-4.3c1.6,1.2,3.5,2.2,5.7,2.8
		c-1.9,3.6-4.1,10.2-5.9,16.1c-2.5,0.7-5,1.5-7.4,2c1.3-5.7,3.4-11.4,5-15.9C519.9,512.1,519.4,511.9,519,511.6z M532.4,497.7
		c2.2-2.3,4.3-4.3,6.2-6.2c0.7,3.9,2.7,10.2,9.4,14.5c-1.7,3.6-4.3,10-6.5,15.6c-2.6,0.6-5.2,1.2-7.8,1.8c1.3-4,3.1-8.8,4.7-12.5
		c0.6-1.2,1-2.4,1.5-3.3C536.2,504.6,533.9,501.5,532.4,497.7z M557.7,518.5c-2.2,0.3-4.4,0.7-6.7,1.1c1.8-4.7,4.5-10.8,6.9-15
		c-3.1-5.3-5.5-9.3-6.5-15.6c2.1-0.3,4.1-0.6,6.2-0.8c0.6,3.9,2,9.9,6.9,15.6C562.3,507.8,559.8,513.4,557.7,518.5z M468.1,710.5
		c-4.2,4.5-10.1,7.7-16.7,9.4c0,0-18.1,6.2-32.7-8l4.9-8.2c2.6,2.5,3.8,3.6,6.3,5.3c5.6,3.7,13.1,4.4,19.4,2.9
		c6.7-1.7,11.7-5.4,14.8-10.2c4.4-6.8,1.6-15.3,1.6-15.3l-14.4-57.9l13.9-3.4c0,0-4.6,5.4-3.2,11.5l12.2,49.2
		c0.2,0.7,0.7,3.1,0.7,3.3C476,696.9,473.8,704.6,468.1,710.5z M567.9,670.1l-14.4,7.6c3.5-4.9,0.1-8.4-2.1-10.3l-8.7-6.8
		l-19.9,10.5l0.7,10.4c0.8,4.7,3.8,7.7,7.1,8.1l-14.3,7.5l-0.3,0.1l-1.9-29.6l30.7-16l23.4,18.4L567.9,670.1z M513.9,663.6
		l-2.7-38.8l30.5,24.2L513.9,663.6z M571.9,668L507,616.9l5.5,82.4l-12.8,6.7c2.2-3.1,3.5-7.9,3.7-16.4l-4.9-88.8l70.7,54.3
		c5,3.4,9.8,6.4,14.9,6.5L571.9,668z M605.3,641c1.4-3.8,1.6-8.9-2.8-13.2l-13.9-14.5L540,594.9c-4.8-1.4-6.9-1.8-12.7,0.1l10.4-10
		l55.5,20.8l23.4,24.3L605.3,641z M619.4,627.4L619.4,627.4l-23.5-24.3l-18.7-56.2l10.6-10.2c-2.6,8.3-1.3,11.3-0.9,13.1l16.5,49.1
		l15.2,15.6c3.5,2.9,7.1,3.8,12,2.1L619.4,627.4z M648.2,557.2l-3.2-11l0.1,0.1c0.1,0,7.3,3.1,11.9,0.7c0.9-0.4,3.6-1.8,5.5-5.4
		c2.3-4.4,1-9.4-1.7-10.9c-4.3-2.5-8.9,0.4-15.3,6.1l-0.6,0.6c-7.9,7.1-17.7,15.8-33.2,7.1c-1.1-0.6-2-1.3-3-1.9
		c-6.6-4.8-10.3-11.5-10.7-19.4c-0.3-5.9,1.3-12.1,4.8-18.4c4.7-8.3,14.2-15.1,22.8-16.2l2-0.2h0.1l2.9,8.1h-0.1
		c-12.4-0.3-19.1,9.5-20.9,12.5c-3.3,5.7-4.3,11.7-2.8,16.9c1.4,4.6,4.6,8.4,9.2,10.9c9.6,5.3,16.6,0.2,24.8-7c0-0.1,5-4.3,9-6.9
		c4.7-3.1,9.8-3,15.5,0.2c7.3,4.2,9.2,13.7,4.5,22.3l-0.2,0.3c-0.1,0.2-0.2,0.4-0.3,0.6c-3,5.4-7.5,8.8-13.2,10
		C656.1,556.4,651.2,557.6,648.2,557.2L648.2,557.2z M679.8,551.7c0,0-0.2,0.5-0.6,1.2c-2.1,3.8-10.3,16.1-27.2,16.9h-0.1l-2.6-9.1
		h0.1c3.7-0.2,5.3-0.3,8.1-1c6.5-1.5,12-5.7,15.4-11.8c3.2-5.8,4.1-12.1,2.5-17.9c-1.2-4.3-4-7.8-8.3-10.4c-4.2-2.6-8.7-2.9-9.2-2.9
		c-6.8-0.2-11.4,3.7-16.3,7.9c-0.4,0.4-0.9,0.8-1.3,1.1l-2.4,2l-0.3,0.2c-5.3,4.8-11.3,10.1-19.3,5.6c-8.5-4.8-10.7-13.7-5.4-22.4
		c6.3-10.2,15.5-11.1,19.2-11h0.1l3.9,10.7l-0.2-0.1c-9.8-4.9-15.1,2.8-15.7,3.7c-2.7,4.2-2.3,8.1,0.8,10.3c0.5,0.3,0.8,0.5,1.4,0.8
		c2.8,1.3,5.7-0.1,11.6-5.7l0.3-0.2c6.1-5.8,18.9-17.8,37.1-7.6c7.8,4.4,12.6,12.1,13.1,21.1C684.7,539.4,683.1,545.8,679.8,551.7z
		 M704.4,370.1l7.1,2.4l-76.9,66.4l12.6,15.2l-38.8-3.2l-12.7-1.1l-11.2-0.9l-3.8,7.2l-1.8,3.4l-5.5-10.6l-58.3,4.7l-4.4,0.4
		l12.3-15.1l-76.9-66.3l6-2.1l8.1-2.8l-3.3-39.8l36.2,6.2l6.9-17.5c0,0,21.9,21.3,26.1,25.3c0.2,0.1,0.3,0.2,0.4,0.3
		c0.9,0.8,1.8,1.5,2.7,2c0.8,0.4,1.6,0.8,2.4,0.9c0.4,0,0.8,0.1,1.1,0.1c1.5,0,2.8-0.7,3.7-2.2c0.5-0.9,0.9-2.2,1-3.8
		c0.1-1,0.1-2.1,0-3.3c-0.7-6.3-5.2-54.1-5.3-54.2l21.2,8.5l8.5-13.8l17-27.7l25.4,41.6l21.2-8.5c0,0.1-3.2,32.8-4.6,47.6
		c-0.3,3-0.5,5.4-0.6,6.5c-0.5,5.7,1.1,8.6,3.6,9.2c0.4,0.1,0.7,0.1,1.1,0.1c2,0,4.2-1.1,6.2-3c0.1-0.1,0.2-0.2,0.3-0.3
		c4.2-4,26.1-25.3,26.1-25.3l6.9,17.5l36.2-6.2l-3.2,39.8L704.4,370.1z M295.4,340.1h-8.6c-0.2-6.5,3.7-13.2,9-16.7
		C294,330.7,295,336.9,295.4,340.1z M116.3,514.4c3.4,7.1,2.3,11.1,0,13.3c-0.9,0.8-2.5,1.9-3.9,2c-3.6,0.4-7,0.7-11.1-8.2l-2.5-5.3
		l15-7.1L116.3,514.4z M132.8,507.2l-2.7-5.7l11.1-5.2l2.7,5.7c2,4.2,1.5,8.3-2.1,10C137.5,514,134.1,510,132.8,507.2z M129.6,521.1
		l-0.1-0.8l0.7,0.5c6.1,4.5,11.6,5.4,17.1,2.8c9.2-4.4,12.4-16.1,7.4-26.8l-7.9-16.7l-64,30.3l7.7,16.3c6.8,14.3,17.3,19.7,28,14.5
		C126.6,537.4,130.7,529.7,129.6,521.1z M145,485.2l6.3,13.2c4.2,8.7,1.7,18.3-5.6,21.8c-7,3.3-14.9-0.8-19.3-10l-6.3-13.2
		L145,485.2z M116.9,537.8c-12.1,5.8-19.6-5.5-23-12.7l-6.1-12.8l28.8-13.7l6.1,12.8C125.5,517.4,130.6,531.3,116.9,537.8z
		 M268.1,102.1c4.1-5.5,10.6-8.3,17.1-8c3.9,0.2,7.7,1.4,11,3.8c8.7,6.5,10.6,19.4,4.1,28.1c-6.5,8.8-19.4,10.7-28.1,4.2
		C263.5,123.7,261.6,110.9,268.1,102.1z M135.9,201.4c4.1-5.5,10.6-8.3,17.1-8c3.9,0.2,7.7,1.4,11,3.8c8.8,6.5,10.6,19.4,4.2,28.1
		c-6.5,8.8-19.4,10.7-28.1,4.2C131.3,223,129.4,210.1,135.9,201.4z M203.5,155.8l-9.3-12.7l4.5-3.2c2.8-2,5.1-3,7.3-3
		c1.3,0,2.6,0.4,3.9,1.1c2.3,1.3,3.3,4.3,3.4,5c0.1,0.5,0.7,5.2-5,9.3L203.5,155.8z M528.5,647.9l-8.2,4.3l-0.9-11.6L528.5,647.9z"
		/>
	<path class="st1" d="M694.7,154.6C635.3,75.9,549.1,23.3,451.9,6.5c-51.6-9-103.6-7.5-154.3,4.4c-52.6,12.3-101.3,35.2-144.7,68
		C70.3,141.2,17,231.8,2.7,334.2s12.1,204.2,74.4,286.6c59.4,78.7,145.6,131.4,242.8,148.2c51.7,8.9,103.6,7.4,154.4-4.5
		c52.6-12.2,101.3-35.1,144.8-67.9c82.5-62.2,135.8-152.9,150.1-255.3C783.4,338.9,757,237.1,694.7,154.6z M755.1,439.4
		c-13.8,98.6-65.1,186-144.6,245.9c-41.9,31.6-88.8,53.6-139.5,65.5c-6.1,1.4-12.3,2.7-18.4,3.8c-43,7.9-86.8,8-130.3,0.5
		c-70.2-12.2-134.5-43.7-186.4-90.7c-17.3-15.7-33.2-33-47.5-52c-48.7-64.6-74.6-141.5-75.3-220.9c-0.1-18.4,1.1-36.8,3.7-55.3
		C28,255.6,64.3,182.6,120.6,125.9c12.6-12.7,26.2-24.6,40.7-35.6c28.2-21.3,58.7-38.2,91-50.6c15.8-6,31.9-11,48.5-14.9
		c48.9-11.5,99-12.9,148.7-4.3c93.6,16.1,176.7,66.8,233.9,142.7C743.4,242.6,768.9,340.7,755.1,439.4z M504.5,41.2
		c-18.1-6.2-36.9-11-56.1-14.3c-3.1-0.5-6.2-1-9.3-1.5c-18.7-2.7-37.5-3.9-56.2-3.8c-10.3,0.1-20.5,0.6-30.8,1.6
		c-4.4,0.4-8.8,0.9-13.1,1.5c-1.8,0.2-3.6,0.5-5.4,0.8C273,34.2,214.8,58,165.3,95.4c-25.5,19.3-48.1,41.4-67.4,65.9
		C58.2,211.6,32.4,271.8,23.3,337c-4.2,30.3-4.7,60.5-1.5,90.1c3.5,33.3,11.7,65.8,24.1,96.8c12,29.7,27.9,58.1,47.8,84.4
		c22.9,30.3,49.9,56.5,80.1,78c11,7.8,22.5,15.1,34.3,21.6c35.6,19.7,74.5,33.5,115.4,40.6c9.3,1.6,18.7,2.8,28.1,3.7
		c15.5,1.5,31,1.9,46.4,1.4c4-0.1,8-0.3,12-0.6c70.7-4.7,139.5-29.8,196.7-73.1c5.7-4.3,11.2-8.7,16.6-13.3c46-39,81-87.9,102.9-143
		c10.8-27.1,18.4-55.7,22.5-85.4c4.1-30.1,4.6-60.3,1.5-89.9c-0.1-0.7-0.2-1.3-0.3-1.9c-7.2-64.5-31.6-126.1-71.7-179.3
		C633.7,108.1,573.3,64.6,504.5,41.2z M734.6,436.4C721.5,529.6,673,612,598,668.7c-78.6,59.3-175.2,82.7-272.2,65.9
		c-88.4-15.3-166.9-63.2-220.9-134.8C48.2,524.7,24.2,432.1,37.2,339c13.1-93.1,61.6-175.6,136.6-232.2
		C252.3,47.5,349,24.1,446,40.9c78.7,13.6,149.5,53,202.3,112.1c0.2,0.2,0.3,0.4,0.4,0.5c6.4,7.1,12.4,14.4,18.2,22.1
		C723.5,250.7,747.6,343.3,734.6,436.4z M122.7,511.4l-6.1-12.8l-28.8,13.7l6.1,12.8c3.4,7.2,10.9,18.5,23,12.7
		C130.6,531.3,125.5,517.4,122.7,511.4z M116.3,527.7c-0.9,0.8-2.5,1.9-3.9,2c-3.6,0.4-7,0.7-11.1-8.2l-2.5-5.3l15-7.1l2.5,5.3
		C119.7,521.5,118.6,525.5,116.3,527.7z M89.9,294.4L77,286.1l18-43.7l15.2,3.2c-2,1.4-4.6,3.8-6,7.3l-4.1,10L142,280
		c3,1.2,5.9,1,8.2,0l-7.6,18.6c-0.8-2.3-2.5-4.2-5.9-5.6l-41.8-17.1l-3.7,9C89.7,288.3,89.2,290.8,89.9,294.4z M131.9,240.6
		c14.9,11,36,7.8,47.1-7.2c11.1-15,8.1-36.1-6.8-47.1c-5.6-4.1-12-6.3-18.5-6.5c-10.8-0.4-21.7,4.3-28.6,13.7
		C114,208.4,117.1,229.5,131.9,240.6z M135.9,201.4c4.1-5.5,10.6-8.3,17.1-8c3.9,0.2,7.7,1.4,11,3.8c8.8,6.5,10.6,19.4,4.2,28.1
		c-6.5,8.8-19.4,10.7-28.1,4.2C131.3,223,129.4,210.1,135.9,201.4z M671.4,512c7.8,4.4,12.6,12.1,13.1,21.1
		c0.2,6.3-1.4,12.7-4.7,18.6c0,0-0.2,0.5-0.6,1.2c-2.1,3.8-10.3,16.1-27.2,16.9h-0.1l-2.6-9.1h0.1c3.7-0.2,5.3-0.3,8.1-1
		c6.5-1.5,12-5.7,15.4-11.8c3.2-5.8,4.1-12.1,2.5-17.9c-1.2-4.3-4-7.8-8.3-10.4c-4.2-2.6-8.7-2.9-9.2-2.9
		c-6.8-0.2-11.4,3.7-16.3,7.9c-0.4,0.4-0.9,0.8-1.3,1.1l-2.4,2l-0.3,0.2c-5.3,4.8-11.3,10.1-19.3,5.6c-8.5-4.8-10.7-13.7-5.4-22.4
		c6.3-10.2,15.5-11.1,19.2-11h0.1l3.9,10.7l-0.2-0.1c-9.8-4.9-15.1,2.8-15.7,3.7c-2.7,4.2-2.3,8.1,0.8,10.3c0.5,0.3,0.8,0.5,1.4,0.8
		c2.8,1.3,5.7-0.1,11.6-5.7l0.3-0.2C640.4,513.8,653.2,501.8,671.4,512z M145.7,520.2c7.3-3.5,9.8-13.1,5.6-21.8l-6.3-13.2
		L120.1,497l6.3,13.2C130.8,519.4,138.7,523.5,145.7,520.2z M141.2,496.3l2.7,5.7c2,4.2,1.5,8.3-2.1,10c-4.3,2-7.7-2-9-4.8l-2.7-5.7
		L141.2,496.3z M494.2,153.1c14.9,11,36,7.8,47.1-7.2c11.1-14.9,8-36.1-6.8-47.1c-5.6-4.1-12-6.3-18.5-6.5
		c-10.8-0.4-21.7,4.3-28.6,13.7C476.3,120.9,479.4,142.1,494.2,153.1z M498.2,114c4.1-5.5,10.6-8.3,17.1-8c3.9,0.2,7.7,1.4,11,3.8
		c8.7,6.5,10.6,19.4,4.2,28.1c-6.5,8.7-19.4,10.6-28.1,4.2C493.7,135.6,491.8,122.7,498.2,114z M648.3,557.2L648.3,557.2l-3.3-11
		l0.1,0.1c0.1,0,7.3,3.1,11.9,0.7c0.9-0.4,3.6-1.8,5.5-5.4c2.3-4.4,1-9.4-1.7-10.9c-4.3-2.5-8.9,0.4-15.3,6.1l-0.6,0.6
		c-7.9,7.1-17.7,15.8-33.2,7.1c-1.1-0.6-2-1.3-3-1.9c-6.6-4.8-10.3-11.5-10.7-19.4c-0.3-5.9,1.3-12.1,4.8-18.4
		c4.7-8.3,14.2-15.1,22.8-16.2l2-0.2h0.1l2.9,8.1h-0.1c-12.4-0.3-19.1,9.5-20.9,12.5c-3.3,5.7-4.3,11.7-2.8,16.9
		c1.4,4.6,4.6,8.4,9.2,10.9c9.6,5.3,16.6,0.2,24.8-7c0-0.1,5-4.3,9-6.9c4.7-3.1,9.8-3,15.5,0.2c7.3,4.2,9.2,13.7,4.5,22.3l-0.2,0.3
		c-0.1,0.2-0.2,0.4-0.3,0.6c-3,5.4-7.5,8.8-13.2,10C656.1,556.4,651.2,557.6,648.3,557.2z M420.9,79.1l5.7-14.2l46.4,9.4l-0.3,15.5
		c-1.8-1.7-4.6-3.8-8.3-4.6l-10.6-2.1l-9,44.3c-0.6,3.2,0.1,6,1.5,8l-19.5-4c2.3-1.3,3.5-3.5,4.2-6.9l9-44.3l-9.5-1.9
		C426.9,77.8,424.3,77.7,420.9,79.1z M264.1,141.3c14.9,11,36,7.8,47.1-7.2c11.1-15,8.1-36.1-6.8-47.1c-5.6-4.2-12-6.3-18.5-6.6
		c-10.8-0.4-21.6,4.3-28.6,13.7C246.1,109.1,249.2,130.2,264.1,141.3z M268.1,102.1c4.1-5.5,10.6-8.3,17.1-8c3.9,0.2,7.7,1.4,11,3.8
		c8.7,6.5,10.6,19.4,4.1,28.1c-6.5,8.8-19.4,10.7-28.1,4.2C263.5,123.7,261.6,110.9,268.1,102.1z M340.5,64.9l41,32l-1.6-27.5
		c-0.3-3-0.7-4.9-2-6.4l17.1-1c-1.4,2-1.5,4.6-1.4,6.9l3.4,58.7l-40.9-32.1l1.5,26.5v0.1c0.3,3.6,0.5,5.6,2.2,7.4l-18,1.1
		c2-2.3,2.2-5.1,2.1-7.8L340.5,64.9z M179.5,146l30.9,43c0.8,1.6,1.3,3.6,0.9,5.9l15.8-11.5c-3-0.3-4.8-2.1-6.7-4.5L207,160.5
		l34.7,12.3l14.9-10.8c-2.4-0.1-5.4-0.7-8.7-1.6l-22.9-7.8l0.4-1.1c2.8-7,1.4-12.2,1.1-13.1c-0.7-2.3-1.8-4.5-3.3-6.5
		c-2-2.8-4.5-4.9-7.3-6.3l-0.4-0.2c-2.2-1.1-4.3-1.6-6.4-1.9c-0.8-0.1-1.7-0.1-2.6-0.1c-2.7,0.1-5.5,0.7-8.3,1.8
		c-0.8,0.3-4.5,1.9-7.4,4l-0.2,0.2l-17.8,12.9C175.1,142.7,177.7,143.6,179.5,146z M198.7,139.9c2.8-2,5.1-3,7.3-3
		c1.3,0,2.6,0.4,3.9,1.1c2.3,1.3,3.3,4.3,3.4,5c0.1,0.5,0.7,5.2-5,9.3l-4.8,3.5l-9.3-12.7L198.7,139.9z M544.8,651.6l23.4,18.4
		l-0.3,0.1l-14.4,7.6c3.5-4.9,0.1-8.4-2.1-10.3l-8.7-6.8l-19.9,10.5l0.7,10.4c0.8,4.7,3.8,7.7,7.1,8.1l-14.3,7.5l-0.3,0.1l-1.9-29.6
		L544.8,651.6z M554.1,569.1c-0.6,1.8-1.7,4.3-0.5,6.5c0,0,1.3,2.1,4.5,3.7l20.4,8.4l-7.7-20.8c-1.6-4.5-2.9-4.9-3.6-5.3
		c-0.9-0.2-3-0.5-6.4,1.1l13.3-12.8l17.2,51.2L540.7,582l0.3-0.3L554.1,569.1z M135.7,533c0,0,6.3,2.9,15.4-1.4
		c13.4-6.4,18.2-23.2,10.9-38.4l-14-29.6c0,3.9-1.8,7.7-6.7,9.9l-59.1,28c-5.5,2.5-9.9,2-13.5-1.7l14.4,30.5
		c11.7,24.4,30.9,23.2,39.5,19.1C129.2,546.3,134.1,541,135.7,533z M90.5,526.7l-7.7-16.3l64-30.3l7.9,16.7
		c5,10.7,1.8,22.4-7.4,26.8c-5.5,2.6-11,1.7-17.1-2.8l-0.7-0.5l0.1,0.8c1.1,8.6-3,16.3-11.1,20.1C107.8,546.4,97.3,541,90.5,526.7z
		 M454.1,690.4L442,641.6c-1.2-4.9-5.3-8.2-8.3-8.7l13.9-3.4c0,0,14.7,59.3,14.7,59.4c2.3,9.6-5.1,17.4-13.8,19.5
		c-2.2,0.5-9.2,2.2-15.9-1.9c0,0-5-3.2-7.3-5.9l5.9-9.9c0,0,2.5,7.8,7.5,9.5c0.1,0,3.7,1.4,8.2,0.2
		C451.5,699.1,455.2,695,454.1,690.4z M593.2,605.8l23.4,24.3L605.3,641c1.4-3.8,1.6-8.9-2.8-13.2l-13.9-14.5L540,594.9
		c-4.8-1.4-6.9-1.8-12.7,0.1l10.4-10L593.2,605.8z M506.3,310.4l-9.3-9.1l-4.8,12.1l-4.3,11l-29.3-5l-11-1.9l0.6,7.8
		c-19.8-1.1-32.9-3.6-52.8-8.5c-16.1-3.9-39.9-13.3-62.2-20.2c13.1-1.8,28.7-2.1,47.6-0.4c0,0-80.4-26.1-117.9-0.4
		c-4.9,3-8.6,6.6-10.6,10.6c-5.1,10.2-1.1,20.3-1.1,20.3c-15.2,0-28.1-16.9-26.9-34.6c11.3-17.2,27.7-34.6,59.7-45.1
		c48.7-16,236.7-15,304.1-93.2c0,0.1-0.4,16.2-5.9,29.2c14.4-8.2,29-12.6,44.4-14.9c-15.8,18.2-27.5,34-35.4,55.4
		c14-9.8,22.9-13.4,35.7-13.8c-12.7,12.2-17.1,38.4-23.2,63.2l-17.5-28.5l-7.4-12l-7.4,12L550,279.6l-14.4-5.8l-13.2-5.3l1.4,14.2
		c0,0.4,3.4,35.5,4.8,49.3C521,324.6,506.5,310.6,506.3,310.4z M569.2,655.1c5,3.4,9.8,6.4,14.9,6.5l-12.2,6.4L507,616.9l5.5,82.4
		l-12.8,6.7c2.2-3.1,3.5-7.9,3.7-16.4l-4.9-88.8L569.2,655.1z M511.2,624.8l2.7,38.8l27.8-14.6L511.2,624.8z M519.4,640.6l9.1,7.3
		l-8.2,4.3L519.4,640.6z M630.6,616.6l-11.2,10.8h-0.1l-23.4-24.3l-18.7-56.2l10.6-10.2c-2.6,8.3-1.3,11.3-0.9,13.1l16.5,49.1
		l15.2,15.6C622.1,617.4,625.7,618.3,630.6,616.6z M474.9,689.1c1.1,7.8-1.1,15.5-6.8,21.4c-4.2,4.5-10.1,7.7-16.7,9.4
		c0,0-18.1,6.2-32.7-8l4.9-8.2c2.6,2.5,3.8,3.6,6.3,5.3c5.6,3.7,13.1,4.4,19.4,2.9c6.7-1.7,11.7-5.4,14.8-10.2
		c4.4-6.8,1.6-15.3,1.6-15.3l-14.4-57.9l13.9-3.4c0,0-4.6,5.4-3.2,11.5l12.2,49.2C474.4,686.5,474.9,688.9,474.9,689.1z
		 M173.9,614.8l-11.9,7.4L136.9,594l56.2-50.1l0.1,0.1l9.5,10.7c-4.6-2.8-11.7,2.5-11.7,2.5c-0.1,0.1-0.2,0.2-0.3,0.3c0,0,0,0-0.1,0
		c-5.2,4.6-36.3,32.3-41.9,37.4c4.1,4.6,11.1,12.4,11.1,12.4l0.3,0.3C166.2,614.4,173.9,614.8,173.9,614.8z M273.9,622.2l-27,42.7
		c-9.3,14.6-26.2,16.4-42.4,6.1c-16.6-10.6-21-25.8-11.9-40.5c0,0,27-42.7,27.1-42.7c3.1-4.9,2.9-7.9,0.6-12l12.1,7.7l-31.9,50.2
		c-0.9,1.4-1.2,1.9-1.2,1.9c-3.6,5.6-2.9,13.1,0.9,19.4c0.1,0.1,0.1,0.2,0.2,0.4c2.1,3.4,5.1,6.5,8.9,8.9c11,7,24.5,5.6,30.1-3.2
		c0,0,0.8-1.2,1.2-1.9l31.9-50.2l12,7.6C280.5,616,276.9,617.7,273.9,622.2z M131.5,593.6l27.3,30.6l-7,4.4L115,587.3
		c4.8,1.7,8.8,1.6,13.2-2.1c5.1-4.5,48.4-43.1,48.5-43.2c0.3-0.3,0.5-0.4,0.5-0.4c4.3-3.9,5-7.8,3.8-11.4l9.5,10.7L131.5,593.6z
		 M297.7,621.7l54.3,12.9l-0.6,8.3l-41.3-9.8l-16.4,69l43.6,10.3L334,720l-57.7-13.7c6.2-0.7,8.9-5.5,9.8-8.9
		c0.1-0.4,0,0.2,15.2-64.1C302.7,628.7,300.8,624.5,297.7,621.7z M210.8,640.2c-2.5,4.3-0.4,10.7,4.8,14s11.8,2.6,14.7-1.6
		c9.1-14.3,26.3-41.5,26.3-41.5c2.7-4.3,3.2-7.7,0.6-12l12.1,7.7L236.8,658c-5.2,8-16.4,9-25.7,3.1s-13-16.7-8-24.6l32.3-51
		l12.1,7.7c-4.9-0.3-8.1,1.7-10.6,5.6c0,0-0.2,0.3-0.5,0.8C236.4,599.7,213.7,635.6,210.8,640.2z M313.1,637.7l38.2,9.1l-0.9,13.1
		c0,0-2.4-5.4-12.5-7.9l-18.5-4.4l-2.9,12.3l15.4,3.7c6.9,1.6,10.8-2.6,10.8-2.6l-2.8,11.7l-33.2-7.9L313.1,637.7z M344.7,695.8
		l-5.6,13l-40.2-9.5l7.3-30.7l32.8,7.8l-2.8,11.6c0,0-1.5-5.1-8.5-7l-0.2-0.1l-14.8-3.5l-3.8,15.8c0,0,20.9,5,21,5
		C337.8,699.8,341.4,697.7,344.7,695.8z"/>
	<path class="st2" d="M57.7,361.2c30.5-1.3,73.2-2.8,148-0.3c6.2,0.1,12.2,0.2,18.1,0.3c3.8-5,10.6-9.4,23.6-9.4h1.3h2.5
		c24.2,0.3,28.7,25.2,54.4,25.2c25.5,0,30.1-24.4,53.8-25.2c0.8,0,1.6,0,2.4,0h88.7l-1.2-14.7h-88.8c-24.6,0-29-25.2-54.9-25.2
		c-25.6,0-30.1,25.1-54.1,25.1h-0.2c-25.3-1.8-35.3-23.1-37.3-41.2l0,0c-11.2,4.7-17,10.3-25.4,23.7
		c-91.7,15.2-123.1,29.8-131.4,38.9C56,360.1,56.6,360.9,57.7,361.2z M295.8,323.4L295.8,323.4L295.8,323.4L295.8,323.4
		c-1.8,7.3-0.8,13.5-0.4,16.7h-8.6C286.6,333.6,290.5,326.9,295.8,323.4z M554.1,459.1c-6.5,5.1-89.9,71.8-161.7,211.2
		c-37.8-111.1-99.9-201-145.4-232.8c-20.9-14.6-34.2-22.6-63.3-28c-60.6-11.3-110-30.4-124.5-40.9c-3.4-2.6-2.5-3.9,0.5-3.8l0,0
		c3.2,0,6.7,0.1,10.6,0.2c53.3,1.7,100.3,6.7,143.2,12.8c-3,19.6,20.4,33.1,45.1,43.2c85.5,35.1,132.8,98.9,153,148.5
		c20.2-35.4,50.3-67.3,65.8-86.6l-30.3,0.1c6.9-19.2,21.5-44,36.5-66.9l27.6,23.8l-7.1,8.6L491,464.3l20.5-1.7L554.1,459.1z"/>
	<path class="st3" d="M265.8,534L265.8,534L265.8,534L265.8,534z M273.3,572.2c0.9-9.2,2.1-14.9,4.8-14.5c-5.9-4.3-6.1-16-5.2-21.4
		c-2.4-0.7-4.8-1.5-7.1-2.3c-1.8,6.7-1.4,16.8,4.3,21.4c-2.4,3.7-3.2,7.8-3.6,14.8C268.8,570.9,271.1,571.6,273.3,572.2z
		 M156.8,418.7L156.8,418.7L156.8,418.7L156.8,418.7z M358.9,182.9L358.9,182.9c-3.2,4.8-8.3,11.1-11.5,13.3
		c0.6,0.9,1.2,1.9,1.8,2.8c3.6,6.6,3.9,13.5,3,17.1c2.5,0.4,5,0.8,7.5,1.3c1.7-6.1,0.6-14.3-4-19.7c2.3-2.8,7.9-8.9,10.6-13.5
		C363.8,183.9,361.4,183.4,358.9,182.9z M252.4,560.9c0.9-4.9,2.1-8.9,3.6-10.1c0.4-0.4,0.8-0.5,1.2-0.4c-4.4-6.7-4.1-16.4-2.9-21
		c-0.5-0.2-1-0.5-1.4-0.7c-1.6-0.7-3.2-1.5-4.8-2.2c-2,5.9-1.4,14.6,2.1,20.7c-2,3.2-3,5.8-3.6,9c-0.7-0.6-1.4-1.2-2.1-1.8
		c-2.3-1.9-4.5-3.9-6.7-5.9c-0.4-0.4-0.9-0.8-1.3-1.2c0,0,0,0,0-0.1c0,0-0.1,0-0.1-0.1c0.7-1.9,1.5-3.5,2.3-4.4
		c0.1-0.1,0.2-0.1,0.2-0.2c0.1-0.1,0.1-0.1,0.2-0.2c0,0,0.1,0,0.1-0.1c0.1-0.1,0.2-0.1,0.3-0.1c0.2,0,0.3,0,0.5,0
		c-0.6-1.3-1.1-2.6-1.5-3.9c-1.4-4.8-1.2-9.6-0.5-13.2c0.3-1.3,0.6-2.5,1-3.4c-2-1.1-4-2.3-5.9-3.5c-2.9,5.6-3.6,13.3,0.1,20
		c-0.3,0.5-0.6,1.1-0.9,1.6c-0.1,0.1-0.2,0.3-0.2,0.4c-0.3,0.6-0.6,1.3-1,2.1c-1.5-1.5-2.9-3-4.3-4.5c-1.5-1.5-2.8-3-4.2-4.6
		c0.1-0.2,0.3-0.3,0.4-0.4c0.3-0.3,0.7-0.5,1-0.5c0.2,0,0.3,0,0.5,0.1c-2.3-6-1.5-12.4-0.1-16.7c0.3-0.9,0.6-1.8,1-2.5
		c-1.3-0.9-2.5-1.8-3.8-2.7c-0.6-0.5-1.3-0.9-1.9-1.3c-2.3,3.9-3.6,8.6-3,13.6c0.2,1.7,0.7,3.3,1.4,4.9l0,0l0,0c0,0,0,0,0,0.1
		c-2-2.3-3.9-4.7-5.7-7.1c-0.9-1.1-1.7-2.2-2.6-3.4c0-4.1,0.9-8.1,2.2-11.5c0.3-0.7,0.6-1.5,0.9-2.1c-1.7-1.4-3.4-2.8-5-4.2
		c-1.7,3.1-3,6.6-3.4,10.3c-1.7-2.5-3.4-5.2-5-7.8c0.3-1.1,0.6-2.1,1-3.2c0.5-1.6,1.2-3.1,1.8-4.4c-1.6-1.5-3.2-3-4.7-4.5
		c-0.7,1.3-1.3,2.7-1.9,4.1c-0.1,0.3-0.3,0.6-0.4,1c-0.6-1-1.1-2-1.6-3c-0.6-1.1-1.3-2.3-1.9-3.5c0.5-1,1.1-1.9,1.6-2.7
		c-1.4-1.7-2.8-3.4-4.1-5.1c-0.1,0.1-0.3,0.3-0.3,0.5c-0.2,0.3-0.3,0.5-0.5,0.7c-9.2-19.3-15.4-39.6-18.6-60.3
		c-4.4-0.9-8.8-1.8-13-2.8c6.9,50.8,30.6,99.8,71,137.6c35.7,33.5,79.2,53.4,124.2,60c-2-4.5-4.1-9.1-6.3-13.7
		C312.6,596.5,280.5,582.6,252.4,560.9z M335.4,179.5L335.4,179.5c-2.6,5.4-6.8,13-10,15.3c5.6,7.8,5.8,15.4,4.4,19.1
		c2.6,0.1,5.2,0.3,7.8,0.4c1.8-5.9,1.4-13.7-3.1-19.1c2.2-2.8,6-10.1,8-14.9C340.2,179.9,337.7,179.7,335.4,179.5z M323.8,562.3
		c-7.6-4.3-10.3-14.3-10.5-19.4c-2.6-0.1-5.2-0.2-7.8-0.4l0,0c-0.1,7.1,2.7,17.1,9.7,20.2c-1.1,4.6-1.1,9.9-0.1,16
		c2.4,0,4.8-0.1,7.2-0.2C321.4,571.4,321.2,562.5,323.8,562.3z M299.7,561.7c-7.2-5.1-8.3-15.8-7.8-20.9c-2.5-0.5-5.1-1-7.5-1.5l0,0
		c-1,6.1,0,14.7,4.6,19.5c0.7,0.7,1.4,1.3,2.2,1.8c-1.8,3.7-2.2,8.7-1.7,15.2c2.3,0.4,4.8,0.7,7.2,1
		C296.4,568.8,297,561.6,299.7,561.7z M207.2,261.6c0,0.1,0,0.1,0,0.2s0.1,0.2,0.2,0.3c0.4-0.3,0.8-0.7,1.2-1.1
		c1.1-1,2.1-1.9,3.2-2.9c-0.1-0.2-0.2-0.4-0.3-0.6c-0.2-0.3-0.4-0.7-0.6-1c1.7-2.2,3.5-4.5,5.3-6.7c0.3,0.4,0.6,0.8,0.9,1.2
		c0.4,0.7,0.8,1.3,1.1,1.9c1.6-1.2,3.2-2.5,4.8-3.7c-0.7-1.5-1.6-2.9-2.6-4.2c0.9-1,1.8-2,2.7-3c1.1-1.3,2.3-2.6,3.4-3.8l0,0l0,0
		c1.8,2,2.9,4.1,3.7,6c1.4-0.9,2.8-1.9,4.2-2.8c0.3-0.2,0.6-0.4,0.9-0.6c-0.8-1.9-1.8-3.7-3.1-5.5c-0.4-0.6-0.9-1.1-1.3-1.7
		c1.9-2,3.9-3.8,5.9-5.7c0.5-0.5,1-0.9,1.5-1.4c3.2,3.1,4.7,6.4,5.5,9.2c2-1.1,4-2.2,6-3.3c-0.6-1.7-1.4-3.4-2.3-5
		c-0.8-1.3-1.7-2.4-2.7-3.6c-0.5-0.6-1-1.1-1.5-1.7c2.3-2,4.7-4,7.1-5.9c0.8,0.7,1.4,1.4,2,2.1c1.4,1.6,2.4,3.1,3.2,4.6
		c0.9,1.8,1.4,3.5,1.6,5c0,0.3,0.1,0.6,0.1,0.9c0.1-0.1,0.2-0.1,0.3-0.1c2.1-1,4.2-1.9,6.4-2.8c0.1,0,0.2-0.1,0.3-0.1
		c-0.1-0.7-0.3-1.5-0.5-2.3c-1.1-4.3-3.6-8.6-7.2-11.9l0,0c1.5-1.1,3-2.1,4.5-3.2c1.6-1.1,3.2-2.2,4.8-3.3c-0.3,0.7-0.6,1.3-1,1.7
		c6.7,6.1,7.9,12,7.7,15.8c2.6-0.9,5.1-1.7,7.8-2.4c-0.1-2.5-0.7-5-1.5-7.5c-1-2.6-2.4-5.1-4.3-7.3c-0.4-0.5-0.9-1-1.4-1.5
		c0.3-0.8,0.6-1.8,0.9-3c0.1-0.4,0.2-0.7,0.3-1.1c4.2-2.5,8.5-4.9,12.9-7.1c-1.2,3.4-2.5,6.4-3.9,7.9c6.6,7.5,6.8,13.2,5.9,16.9
		l-0.1,0.3v0.1c2.7-0.6,5.4-1.1,8.1-1.6c0.8-5.7-0.9-12.3-5.4-17.7c0.1-0.1,0.1-0.3,0.2-0.4c0.1-0.2,0.1-0.3,0.2-0.5
		c1-2.2,2.2-5.5,3.2-8.9c3.6-1.6,7.3-3.1,11-4.6c1.2-0.5,2.4-1,3.6-1.4c-1.5,4.5-3.7,9.5-5.8,12.2c-0.3,0.4-0.6,0.7-0.9,1
		c4,4.3,5.8,9.5,6.3,13.6v0.3l0,0c0.2,1.9,0.2,3.5,0,4.7c2.3-0.2,4.8-0.3,7.2-0.5c0.2,0,0.5,0,0.7-0.1c0.4-2.1,0.5-4.4,0.2-6.7
		c-0.2-2-0.6-3.9-1.3-5.8c-1-2.4-2.5-4.6-4.5-6.3c1.8-3.1,4.8-10.4,6.1-15.4c43.4-14.1,90.4-14.4,134.1-0.6c0.2,0.1,0.4,0.1,0.6,0.2
		c0.4,0.1,0.8,0.3,1.2,0.4c11.9,3.9,23.5,8.8,34.7,14.8c5.4-1.7,10.7-3.4,15.9-5.4c-37.1-22.2-79-33-120.7-32.6l0,0
		c-61,0.6-121.6,25.1-166.6,73.1c-21.9,23.4-38,50.1-48.4,78.3c4.7-0.8,9.5-1.7,14.4-2.5C189.4,290.1,197.4,275.4,207.2,261.6z
		 M533.7,523.4c2.6-0.6,5.2-1.2,7.8-1.8c2.2-5.6,4.8-12,6.5-15.6c-6.7-4.3-8.7-10.6-9.4-14.5l0,0c-1.9,1.9-4,3.9-6.2,6.2
		c1.5,3.8,3.8,6.9,7.5,9.9c-0.5,0.9-0.9,2.1-1.5,3.3C536.8,514.6,535,519.4,533.7,523.4z M379.7,187.3c-2.9,4.7-7.4,10.8-10.5,13.3
		c4.2,5.1,6,11.9,6.5,16.9c2.6-0.4,5.2-0.8,7.8-1.1c-0.3-5.2-2-10.7-5.5-14.2c2-3,6.3-8.7,8.6-13.2
		C384.3,188.5,382,187.9,379.7,187.3z M557.7,518.5c2.1-5.1,4.6-10.7,6.8-14.7c-4.9-5.7-6.3-11.7-6.9-15.6l0,0
		c-2.1,0.2-4.1,0.5-6.2,0.8c1,6.3,3.4,10.3,6.5,15.6c-2.4,4.2-5.1,10.3-6.9,15C553.3,519.2,555.5,518.8,557.7,518.5z M711.5,372.5
		l-7.1-2.4l-7-2.4l0,0l3.2-39.8l-36.2,6.2l-6.9-17.5c0,0-21.9,21.3-26.1,25.3c-0.1,0.1-0.2,0.2-0.3,0.3c-2,1.9-4.2,3-6.2,3
		c-0.4,0-0.7,0-1.1-0.1c-2.5-0.6-4.1-3.5-3.6-9.2c0.1-1.1,0.3-3.5,0.6-6.5c1.4-14.8,4.6-47.5,4.6-47.6l-21.2,8.5l-25.4-41.6l0,0
		l-17,27.7l-8.5,13.8l-21.2-8.5c0.1,0.1,4.6,47.9,5.3,54.2c0.1,1.2,0.1,2.3,0,3.3c-0.1,1.6-0.5,2.9-1,3.8c-0.9,1.5-2.2,2.2-3.7,2.2
		c-0.3,0-0.7-0.1-1.1-0.1c-0.8-0.1-1.6-0.5-2.4-0.9c-0.9-0.5-1.8-1.2-2.7-2c-0.1-0.1-0.2-0.2-0.4-0.3c-4.2-4-26.1-25.3-26.1-25.3
		l-6.9,17.5l-36.2-6.2l3.3,39.8l-8.1,2.8l-6,2.1l76.9,66.3L510.7,454l4.4-0.4l58.3-4.7l5.5,10.6l1.8-3.4l3.8-7.2l11.2,0.9l12.7,1.1
		l38.8,3.2l-12.6-15.2L711.5,372.5z M522.8,526.2c1.8-5.9,4-12.5,5.9-16.1c-2.2-0.6-4.1-1.6-5.7-2.8l0,0c-1.3,1.4-2.6,2.8-4,4.3
		c0.4,0.3,0.9,0.5,1.4,0.7c-1.6,4.5-3.7,10.2-5,15.9C517.8,527.7,520.3,526.9,522.8,526.2z M401.2,193L401.2,193
		c-2.5,4.3-6.7,9.7-9.7,12.5c2.4,2.6,3.9,5.7,4.8,9c2.4-0.4,4.8-0.8,7.2-1.2c-0.9-2.1-2.1-4-3.6-5.4c1.8-3.1,6-8.5,8.1-13
		C405.8,194.3,403.5,193.6,401.2,193z M593.1,458.2L593.1,458.2L593.1,458.2L593.1,458.2z M422.9,199.6c-1.9,3.1-4.7,6.7-7.4,9.4
		c-0.9,0.9-1.8,1.8-2.6,2.5c0,0.1,0.1,0.2,0.2,0.3c3.8-0.7,7.6-1.3,11.4-2c1.8-2.5,3.8-5.2,5-7.9
		C427.4,201.1,425.2,200.3,422.9,199.6L422.9,199.6z M586.1,476c-3.2,7.3-6.9,14.4-10.9,21.4c-1.8-3.8-2.3-7.5-2.5-10.4
		c-2,0.1-4.1,0.2-6.2,0.3c0.4,3.3,1.1,6.4,2.2,9.3c0.8,2.1,1.9,4.2,3.2,6.3c-7.5,12-16.3,23.6-26.3,34.3
		c-25.9,27.7-57.4,47.1-91,58.1c-3.4,5.2-6.8,10.5-10.3,16c40.9-10.6,79.4-32.5,110.4-65.7c24-25.6,41-55.2,51.2-86.5l-12.8-1
		C591,464.2,588.7,470.1,586.1,476z"/>
</g>
</svg>
