<?xml version="1.0" encoding="utf-8"?>
<!-- Generator: Adobe Illustrator 26.0.2, SVG Export Plug-In . SVG Version: 6.00 Build 0)  -->
<svg version="1.1"
	 id="Layer_1" inkscape:version="0.92.5 (2060ec1f9f, 2020-04-08)" xmlns:cc="http://creativecommons.org/ns#" xmlns:dc="http://purl.org/dc/elements/1.1/" xmlns:inkscape="http://www.inkscape.org/namespaces/inkscape" xmlns:rdf="http://www.w3.org/1999/02/22-rdf-syntax-ns#" xmlns:sodipodi="http://sodipodi.sourceforge.net/DTD/sodipodi-0.dtd" xmlns:svg="http://www.w3.org/2000/svg"
	 xmlns="http://www.w3.org/2000/svg" xmlns:xlink="http://www.w3.org/1999/xlink" x="0px" y="0px" viewBox="0 0 927.8 781.7"
	 style="enable-background:new 0 0 927.8 781.7;" xml:space="preserve">
<style type="text/css">
	.st0{fill:#00385D;}
	.st1{fill:#FFFFFF;}
	.st2{fill:#E50022;}
</style>
<path class="st0" d="M837.7,283.2l2.9-64.5c0,0,0-29-21.3-34.8L304.2,0l-62,11.6c0,0-1.9,42.6,29,75.5L66,13.5L0.1,25.2
	c0,0-5.8,69.7,63.9,110.3c0,0-9.7,60,56.2,98.7c0,0-7.7,56.1,46.5,87.1c0,0-9.7,44.5,54.2,87.1l79.4,234.1l85.2,42.6l42.6-13.5
	l-13.6,65.8l87.1,44.5l49.3-20.8c28.7,9.7,59.5,15,91.6,15c157.5,0,285.2-127.6,285.2-284.9C927.8,409,893.1,335.2,837.7,283.2z
	 M800,189.6c23.2,5.8,23.2,13.5,23.2,13.5l-30,10.6c-7.7-11.6-15.5-11.6-15.5-11.6L632.4,148l31-7.7L800,189.6z M616.9,223.5
	c0,0,13.6,3.9,15.5,11.6l-32.9,11.6c0,0-5.8-11.6-29-17.4l-147.2-54.2l32.9-9.7L616.9,223.5z M388.4,128.7c0,0-25.2-21.3-27.1-61.9
	l236.3,85.1l-29,40.6L388.4,128.7z M614,207l-31-9.7l28.1-41.6l160.7,60c0,0,15.5,5.8,11.6,27.1l-4.8-2.9
	C699.3,197.4,614,207,614,207z M307.1,12.6l333.1,120l-31,9.7l-337-121.9L307.1,12.6z M258.7,30l89.1,31c0,0,1.9,32.9,15.5,58
	l-56.2-19.3C307.1,99.6,262.5,66.8,258.7,30z M70.8,28.1L431,157.7l-34.9,9.7L30.1,35.8L70.8,28.1z M237.4,271.9
	c0,0-63.9-25.2-65.8-85.1l162.7,63.9l-32.9,44.5L237.4,271.9z M291.6,308.6l-29,38.7c0,0-48.4-21.3-52.3-73.5L291.6,308.6z
	 M214.1,186.7c0,0-85.2-27.1-85.2-100.6L386.5,177l-44.5,60L214.1,186.7z M14.6,43.5l98.8,36.8c4.8,55.1,31,79.3,31,79.3
	C10.8,113.2,14.6,43.5,14.6,43.5z M76.6,144.2c0,0,55.2,28.1,79.4,36.8c0,0-3.9,31,23.2,65.8C179.3,246.7,84.4,225.4,76.6,144.2z
	 M133.7,243.8l63.9,27.1c0,0-5.8,27.1,23.2,61.9C220.9,332.8,137.6,309.6,133.7,243.8z M181.2,329.9c17.4,9.7,73.6,32.9,73.6,32.9
	l-27.1,32.9C182.2,373.4,181.2,329.9,181.2,329.9z M497.8,760.4l-63.9-31l17.4-100.6l-65.8,38.7l-71.7-36.8l-75.5-218.6L401,185.8
	l170.4,61.9c19.4,7.7,15.5,23.2,15.5,23.2L585,327l-158.8-61.9L317.7,425.7l58.1,164.5l73.6-15.5c15.5-1.9,19.4-15.5,19.4-15.5
	l9.7-52.2l-36.8-32.9l11.6-40.6l108.5,44.5L497.8,760.4z M378.7,418.9l48.4,143.2l-38.7,9.7l-52.3-139.3L378.7,418.9z M469.8,420.8
	l31-9.7l108.5,44.5l-34.9,9.7L469.8,420.8z M642.6,759.2c-29.1,0-57.1-4.6-83.3-13.2l72.2-297.1l-129.8-52.2l-62,19.4l-15.5,61.9
	l36.8,34.8l-5.8,36.8c0,0-1.9,9.7-13.6,9.7l-50.4-147.1L466.9,298l123.9,50.3L647,327l3.9-85.1c0,0-1.9-12.9-12.6-19
	c-1.3-0.7,2.9,0,4.4,0C790.8,222.8,911,342.9,911,491C911,639.1,790.8,759.2,642.6,759.2z"/>
<path class="st1" d="M642.6,222.8c-1.5,0-5.6-0.7-4.4,0c10.7,6.1,12.6,19,12.6,19L647,327l-56.2,21.3L466.9,298l-75.5,114.2
	l50.4,147.1c11.6,0,13.6-9.7,13.6-9.7l5.8-36.8l-36.8-34.8l15.5-61.9l62-19.4l129.8,52.2L559.3,746c26.2,8.5,54.2,13.2,83.3,13.2
	C790.8,759.2,911,639.1,911,491C911,342.9,790.8,222.8,642.6,222.8z M857.3,363.3c5.2,9.6,14.8,8.7,14.8,8.7
	c-1.3,13.5,4.4,30.5,4.4,30.5l-4.4,2.6c-4.4-4.4-3.5-27.9-3.5-27.9c-8.7,2.6-14.8-10.5-14.8-10.5L857.3,363.3z M843.3,378.2
	c3.5,10.5,17.5,11.3,17.5,11.3c-1.3,8.3,0,30.5,0,30.5l-5.2,3.5c-1.7-3.5,0.9-27.9,0.9-27.9c-5.2-0.9-16.6-13.1-16.6-13.1
	L843.3,378.2z M826.7,389.5c3.5,11.3,18.3,15.7,18.3,15.7c-4.8,14.4-2.6,27.9-2.6,27.9l-6.1,2.6c-3.5-6.1,2.6-26.2,2.6-26.2
	c-7-2.6-17.5-16.6-17.5-16.6L826.7,389.5z M755.1,400h5.2c0,0,3.9,17.9,15.7,24.4c0,0-14,14-13.1,23.6h-8.7c0,0,7.9-20.9,14-23.6
	C768.2,424.4,750.7,406.1,755.1,400z M728,395.6l8.7,1.7c-0.9,14.8,12.2,27.1,12.2,27.1c-8.3,3.9-15.3,21.4-15.3,21.4h-7.9
	c-0.9-7.9,13.5-22.3,13.5-22.3C732.4,417.4,728,395.6,728,395.6z M701.8,390.4l8.7,1.7c-2.6,11.3,10.5,28.8,10.5,28.8
	c-13.5,3.9-18.3,20.9-18.3,20.9l-8.7-0.9c1.7-8.7,17.5-21.8,17.5-21.8C706.2,414.8,701.8,390.4,701.8,390.4z M682.6,413.1
	c-7-3.5-9.6-31.4-9.6-31.4l9.6,2.6c-3.5,17.5,9.6,31.4,9.6,31.4c-14.4,4.8-19.7,19.6-19.7,19.6l-8.3-1.3
	C665.1,424.4,682.6,413.1,682.6,413.1z M654.6,404.3c-6.1-7.9-7-30.5-7-30.5l7.9,1.7c-2.6,12.2,7.9,33.2,7.9,33.2
	c-8.3,0.4-19.2,17.5-19.2,17.5l-7.9-2.6C639.8,413.1,654.6,404.3,654.6,404.3z M442.8,383.4h-5.7c2.6-9.6,14.8-20.9,14.8-20.9
	c-4.4-5.2-0.9-23.6-0.9-23.6h7c-7,8.7,0,22.7,0,22.7C449.8,366.4,442.8,383.4,442.8,383.4z M461.2,381.7h-5.7
	c1.7-9.6,16.6-20.9,16.6-20.9c-3.5-5.2,0-24.4,0-24.4h7c-6.1,8.7,0,24.4,0,24.4C469,364.6,461.2,381.7,461.2,381.7z M483,383.8
	l-6.6-0.4c3.5-11.3,19.2-23.6,19.2-23.6c-4.4-5.2-1.7-23.6-1.7-23.6l7.9,0.9h0c-6.1,9.6,1.7,24.4,1.7,24.4
	C492.6,363.8,483,383.8,483,383.8z M507.9,386l-7.9-0.9c2.6-9.6,21-22.7,21-22.7c-6.1-4.4-3.5-24.4-3.5-24.4h8.7
	c-4.4,7,3.5,27.1,3.5,27.1C519.7,368.1,507.9,386,507.9,386z M536.3,391.7l-7.4-1.3c0-7.9,18.3-21.8,18.3-21.8
	c-6.1-6.1-3.5-26.2-3.5-26.2l7.9,0.9c-3.5,15.7,5.2,27.9,5.2,27.9C545.9,372.5,536.3,391.7,536.3,391.7z M562,398.2l-7-1.7
	c3.5-11.3,19.2-20.1,19.2-20.1c-4.4-4.4-4.4-27.9-4.4-27.9l7.9,1.7c-3.5,5.2,5.2,29.7,5.2,29.7C570.3,381.2,562,398.2,562,398.2z
	 M588.2,407.8l-7-3.5c3.5-10.5,20.1-19.2,20.1-19.2c-3.5-3.5-5.2-29.7-5.2-29.7l7.9,2.6c-3.5,10.5,5.2,30.5,5.2,30.5
	C597.4,390.8,588.2,407.8,588.2,407.8z M616.6,417l-8.3-3.1c5.2-11.3,19.2-19.2,19.2-19.2c-5.2-5.2-4.4-30.5-4.4-30.5l7,2.6
	c-1.7,16.6,7,32.3,7,32.3C626.2,400.4,616.6,417,616.6,417z M597.9,742.1c0,0-14-14-20.1-14c0,0,4.4-16.6-1.7-21.8l6.1-3.5
	c0,0,5.2,18.3,1.7,23.6c0,0,15.7,6.1,19.2,14L597.9,742.1z M617.9,737.7c0,0-14.8-13.1-20.1-14c0,0,2.6-20.1-2.6-22.7l6.1-3.5
	c0,0,2.6,17.5,1.7,24.4c0,0,14.8,7,19.2,14L617.9,737.7z M637.2,733.4c0,0-14.8-13.1-21-14.8c0,0,4.4-20.1-1.7-23.6l5.2-3.5
	c0,0,6.1,16.6,2.6,25.3c0,0,17.5,5.2,20.1,14.8L637.2,733.4z M657.3,726.4c-3.5-9.6-21.8-15.7-21.8-15.7c5.2-12.2,0.9-23.6,0.9-23.6
	l5.7-3.1c2.6,0.9,0.9,23.6,0.9,23.6c8.7,1.7,18.8,16.1,18.8,16.1L657.3,726.4z M676.5,716.8c-5.2-10.5-22.7-14.8-22.7-14.8
	c7-7,1.7-25.3,1.7-25.3l5.7-3.1c4.4,5.2,0,26.2,0,26.2c9.6-0.9,21.8,14,21.8,14L676.5,716.8z M698.3,707.2
	c-3.5-9.6-21.8-15.7-21.8-15.7c5.2-12.2,0.9-23.6,0.9-23.6l5.7-3.1c2.6,0.9,0.9,23.6,0.9,23.6c8.7,1.7,18.8,16.1,18.8,16.1
	L698.3,707.2z M718,696.3c0,0-12.2-12.2-19.7-14.4c0,0,6.1-15.7,1.7-25.3l7-3.5c0,0,2.6,19.2-0.9,26.2c0,0,15.7,6.1,18.3,14
	L718,696.3z M736.7,686.2c1.7-8.7-16.6-15.7-16.6-15.7c4.4-3.5,5.2-27.1,5.2-27.1l7-3.5c3.1,9.2-5.7,28.4-5.7,28.4
	C738,671,741.5,684,741.5,684L736.7,686.2z M758.6,674.9c1.7-8.7-16.6-15.7-16.6-15.7c4.4-3.5,5.2-27.1,5.2-27.1l7-3.5
	c3.1,9.2-5.7,28.4-5.7,28.4c11.4,2.6,14.9,15.7,14.9,15.7L758.6,674.9z M777.8,664.4c5.2-7.9-13.1-17.5-13.1-17.5
	c6.1-4.4,7-27.1,7-27.1l6.1-1.7c4.4,3.5-6.1,26.2-6.1,26.2c10,7.4,12.2,17.5,12.2,17.5L777.8,664.4z M776.9,400h8.3
	c0,0,2.6,19.6,17.9,20.9c0,0-12.2,16.6-10.5,26.2h-7.9c0,0,0-19.2,8.7-23.6C793.5,423.5,776,413.1,776.9,400z M801.4,654.8H797
	c0,0-1.7-16.6-9.6-19.2c0,0,8.7-9.6,9.6-25.3h6.1c0,0-6.1,21.8-9.6,24.4C793.5,634.7,804,646.1,801.4,654.8z M800.5,398.2l7-2.6
	c0,0,3.1,17,18.3,19.2c0,0-8.7,17.5-7,27.9l-6.1,0.9c0,0,0.9-15.7,5.2-25.3C818,418.3,801.4,409.6,800.5,398.2z M819.7,647l-5.2,1.7
	c6.1-11.3-6.1-20.1-6.1-20.1c10.5-7,14-24.4,14-24.4l5.7,0.4c-0.9,10.5-13.1,23.6-13.1,23.6C821,629.9,819.7,647,819.7,647z
	 M837.7,645.3l-4.8-1c5.8-11.6-2.9-20.3-2.9-20.3c11.6-5.8,15.5-21.3,15.5-21.3h5.8c-1.9,13.5-15.5,21.3-15.5,21.3
	C843.5,626,837.7,645.3,837.7,645.3z M856.1,623c0,0,3.9,13.5-1.9,19.3h-3.9c0,0,5.8-15.5-1.9-19.3c0,0,15.5-11.6,19.4-21.3h7.7
	C875.5,601.8,860,623,856.1,623z M597.6,151.9l-29,40.6l-180.1-63.9c0,0-25.2-21.3-27.1-61.9L597.6,151.9z M258.7,30l89.1,31
	c0,0,1.9,32.9,15.5,58l-56.2-19.3C307.1,99.6,262.5,66.8,258.7,30z M396.2,167.4L30.1,35.8l40.7-7.7L431,157.7L396.2,167.4z
	 M632.4,148l31-7.7L800,189.6c23.2,5.8,23.2,13.5,23.2,13.5l-30,10.6c-7.7-11.6-15.5-11.6-15.5-11.6L632.4,148z M128.9,86.1
	L386.5,177l-44.5,60l-127.8-50.3C214.1,186.7,128.9,159.6,128.9,86.1z M423.3,175.1l32.9-9.7l160.7,58c0,0,13.6,3.9,15.5,11.6
	l-32.9,11.6c0,0-5.8-11.6-29-17.4L423.3,175.1z M609.2,142.2l-337-121.9l34.9-7.7l333.1,120L609.2,142.2z M574.3,465.4l-104.6-44.5
	l31-9.7l108.5,44.5L574.3,465.4z M210.2,273.8l81.3,34.8l-29,38.7C262.5,347.3,214.1,326,210.2,273.8z M171.5,186.7l162.7,63.9
	l-32.9,44.5l-63.9-23.2C237.4,271.9,173.4,246.7,171.5,186.7z M378.7,418.9l48.4,143.2l-38.7,9.7l-52.3-139.3L378.7,418.9z
	 M220.9,332.8c0,0-83.3-23.2-87.1-89l63.9,27.1C197.7,270.9,191.8,298,220.9,332.8z M179.3,246.7c0,0-94.9-21.3-102.6-102.6
	c0,0,55.2,28.1,79.4,36.8C156,180.9,152.1,211.9,179.3,246.7z M144.4,159.6C10.8,113.2,14.6,43.5,14.6,43.5l98.8,36.8
	C118.3,135.4,144.4,159.6,144.4,159.6z M181.2,329.9c17.4,9.7,73.6,32.9,73.6,32.9l-27.1,32.9C182.2,373.4,181.2,329.9,181.2,329.9z
	"/>
<path class="st2" d="M453.3,433.4l108.5,44.5l-63.9,282.5l-63.9-31l17.4-100.6l-65.8,38.7l-71.7-36.8l-75.5-218.6L401,185.8
	l170.4,61.9c19.4,7.7,15.5,23.2,15.5,23.2L585,327l-158.8-61.9L317.7,425.7l58.1,164.5l73.6-15.5c15.5-1.9,19.4-15.5,19.4-15.5
	l9.7-52.2l-36.8-32.9L453.3,433.4z M637.2,399.1c0,0-8.7-15.7-7-32.3l-7-2.6c0,0-0.9,25.3,4.4,30.5c0,0-14,7.9-19.2,19.2l8.3,3.1
	C616.6,417,626.2,400.4,637.2,399.1z M556.8,371.2c0,0-8.7-12.2-5.2-27.9l-7.9-0.9c0,0-2.6,20.1,3.5,26.2c0,0-18.3,14-18.3,21.8
	l7.4,1.3C536.3,391.7,545.9,372.5,556.8,371.2z M663.4,408.7c0,0-10.5-20.9-7.9-33.2l-7.9-1.7c0,0,0.9,22.7,7,30.5
	c0,0-14.8,8.7-18.3,19.2l7.9,2.6C644.1,426.2,655.1,409.1,663.4,408.7z M581.3,404.3l7,3.5c0,0,9.2-17,21-19.2
	c0,0-8.7-20.1-5.2-30.5l-7.9-2.6c0,0,1.7,26.2,5.2,29.7C601.3,385.1,584.8,393.9,581.3,404.3z M529.7,365.1c0,0-7.9-20.1-3.5-27.1
	h-8.7c0,0-2.6,20.1,3.5,24.4c0,0-18.3,13.1-21,22.7l7.9,0.9C507.9,386,519.7,368.1,529.7,365.1z M503.5,361.6c0,0-7.9-14.8-1.7-24.4
	h0l-7.9-0.9c0,0-2.6,18.3,1.7,23.6c0,0-15.7,12.2-19.2,23.6l6.6,0.4C483,383.8,492.6,363.8,503.5,361.6z M479.1,360.7
	c0,0-6.1-15.7,0-24.4h-7c0,0-3.5,19.2,0,24.4c0,0-14.9,11.3-16.6,20.9h5.7C461.2,381.7,469,364.6,479.1,360.7z M437.1,383.4h5.7
	c0,0,7-17,15.3-21.8c0,0-7-14,0-22.7h-7c0,0-3.5,18.3,0.9,23.6C452,362.5,439.8,373.8,437.1,383.4z M856.4,395.6
	c0,0-2.6,24.4-0.9,27.9l5.2-3.5c0,0-1.3-22.3,0-30.5c0,0-14-0.9-17.5-11.3l-3.5,4.4C839.8,382.5,851.2,394.7,856.4,395.6z
	 M778.7,239.9l4.8,2.9c3.9-21.3-11.6-27.1-11.6-27.1l-160.7-60l-28.1,41.6l31,9.7C614,207,699.3,197.4,778.7,239.9z M838.9,409.6
	c0,0-6.1,20.1-2.6,26.2l6.1-2.6c0,0-2.2-13.5,2.6-27.9c0,0-14.8-4.4-18.3-15.7l-5.2,3.5C821.5,393,831.9,407,838.9,409.6z
	 M664.2,434l8.3,1.3c0,0,5.2-14.8,19.7-19.6c0,0-13.1-14-9.6-31.4l-9.6-2.6c0,0,2.6,27.9,9.6,31.4
	C682.6,413.1,665.1,424.4,664.2,434z M868.6,377.3c0,0-0.9,23.6,3.5,27.9l4.4-2.6c0,0-5.7-17-4.4-30.5c0,0-9.6,0.9-14.8-8.7
	l-3.5,3.5C853.8,366.8,859.9,379.9,868.6,377.3z M693.9,441l8.7,0.9c0,0,4.8-17,18.3-20.9c0,0-13.1-17.5-10.5-28.8l-8.7-1.7
	c0,0,4.4,24.4,9.6,28.8C711.4,419.2,695.7,432.3,693.9,441z M733.7,445.8c0,0,7-17.5,15.3-21.4c0,0-13.1-12.2-12.2-27.1l-8.7-1.7
	c0,0,4.4,21.8,11.4,27.9c0,0-14.4,14.4-13.5,22.3H733.7z M754.2,448h8.7c-0.9-9.6,13.1-23.6,13.1-23.6
	c-11.8-6.5-15.7-24.4-15.7-24.4h-5.2c-4.4,6.1,13.1,24.4,13.1,24.4C762.1,427,754.2,448,754.2,448z M812.7,443.6l6.1-0.9
	c-1.7-10.5,7-27.9,7-27.9c-15.3-2.2-18.3-19.2-18.3-19.2l-7,2.6c0.9,11.3,17.5,20.1,17.5,20.1C813.6,427.9,812.7,443.6,812.7,443.6z
	 M771.7,644.3c0,0,10.5-22.7,6.1-26.2l-6.1,1.7c0,0-0.9,22.7-7,27.1c0,0,18.3,9.6,13.1,17.5l6.1-2.6
	C783.9,661.8,781.7,651.8,771.7,644.3z M784.8,447.1h7.9c-1.7-9.6,10.5-26.2,10.5-26.2c-15.3-1.3-17.9-20.9-17.9-20.9h-8.3
	c-0.9,13.1,16.6,23.6,16.6,23.6C784.8,427.9,784.8,447.1,784.8,447.1z M748.5,657c0,0,8.7-19.2,5.7-28.4l-7,3.5
	c0,0-0.9,23.6-5.2,27.1c0,0,18.3,7,16.6,15.7l4.8-2.2C763.4,672.7,759.9,659.6,748.5,657z M577.8,350.2l-7.9-1.7
	c0,0,0,23.6,4.4,27.9c0,0-15.7,8.7-19.2,20.1l7,1.7c0,0,8.3-17,21-18.3C583,379.9,574.3,355.5,577.8,350.2z M797,610.3
	c-0.9,15.7-9.6,25.3-9.6,25.3c7.9,2.6,9.6,19.2,9.6,19.2h4.4c2.6-8.7-7.9-20.1-7.9-20.1c3.5-2.6,9.6-24.4,9.6-24.4H797z M848.4,623
	c7.7,3.9,1.9,19.3,1.9,19.3h3.9c5.8-5.8,1.9-19.3,1.9-19.3c3.9,0,19.4-21.3,19.4-21.3h-7.7C863.9,611.4,848.4,623,848.4,623z
	 M822.3,604.2c0,0-3.5,17.5-14,24.4c0,0,12.2,8.7,6.1,20.1l5.2-1.7c0,0,1.3-17-4.8-18.8c0,0,12.2-13.1,13.1-23.6L822.3,604.2z
	 M851.3,602.7h-5.8c0,0-3.9,15.5-15.5,21.3c0,0,8.7,8.7,2.9,20.3l4.8,1c0,0,5.8-19.3-1.9-21.3C835.8,624,849.3,616.3,851.3,602.7z
	 M726.7,668.3c0,0,8.7-19.2,5.7-28.4l-7,3.5c0,0-0.9,23.6-5.2,27.1c0,0,18.3,7,16.6,15.7l4.8-2.2C741.5,684,738,671,726.7,668.3z
	 M603.1,722c0.9-7-1.7-24.4-1.7-24.4l-6.1,3.5c5.2,2.6,2.6,22.7,2.6,22.7c5.2,0.9,20.1,14,20.1,14l4.4-1.7
	C617.9,729,603.1,722,603.1,722z M706.2,679.2c3.5-7,0.9-26.2,0.9-26.2l-7,3.5c4.4,9.6-1.7,25.3-1.7,25.3
	c7.4,2.2,19.7,14.4,19.7,14.4l6.6-3.1C721.9,685.4,706.2,679.2,706.2,679.2z M622.3,716.8c3.5-8.7-2.6-25.3-2.6-25.3l-5.2,3.5
	c6.1,3.5,1.7,23.6,1.7,23.6c6.1,1.7,21,14.8,21,14.8l5.2-1.7C639.8,722,622.3,716.8,622.3,716.8z M583.9,726.4
	c3.5-5.2-1.7-23.6-1.7-23.6l-6.1,3.5c6.1,5.2,1.7,21.8,1.7,21.8c6.1,0,20.1,14,20.1,14l5.2-1.7C599.6,732.5,583.9,726.4,583.9,726.4
	z M683.9,688.4c0,0,1.7-22.7-0.9-23.6l-5.7,3.1c0,0,4.4,11.3-0.9,23.6c0,0,18.3,6.1,21.8,15.7l4.4-2.6
	C702.7,704.6,692.6,690.2,683.9,688.4z M642.8,707.6c0,0,1.7-22.7-0.9-23.6l-5.7,3.1c0,0,4.4,11.3-0.9,23.6c0,0,18.3,6.1,21.8,15.7
	l4.4-2.6C661.6,723.8,651.6,709.4,642.8,707.6z M661.2,699.8c0,0,4.4-20.9,0-26.2l-5.7,3.1c0,0,5.2,18.3-1.7,25.3
	c0,0,17.5,4.4,22.7,14.8l6.6-3.1C683,713.7,670.8,698.9,661.2,699.8z"/>
</svg>
